<?xml version="1.0" standalone="no"?>
<!DOCTYPE svg PUBLIC "-//W3C//DTD SVG 20010904//EN"
 "http://www.w3.org/TR/2001/REC-SVG-20010904/DTD/svg10.dtd">
<svg version="1.0" xmlns="http://www.w3.org/2000/svg"
 width="260.000000pt" height="260.000000pt" viewBox="0 0 260.000000 260.000000"
 preserveAspectRatio="xMidYMid meet">
<metadata>
Created by potrace 1.11, written by Peter Selinger 2001-2013
</metadata>
<g transform="translate(0.000000,260.000000) scale(0.100000,-0.100000)"
fill="#000000" stroke="none">
<path d="M1132 2590 c-301 -43 -565 -179 -775 -400 -171 -180 -278 -385 -333
-641 -26 -118 -26 -380 0 -498 59 -273 167 -474 360 -667 193 -193 394 -301
667 -360 118 -26 380 -26 498 0 273 59 474 167 667 360 193 193 301 394 360
667 14 62 18 127 18 249 0 122 -4 187 -18 249 -59 273 -167 474 -360 667 -190
189 -384 296 -646 355 -98 22 -340 33 -438 19z m8 -438 c0 -1 -25 -103 -56
-225 -58 -234 -124 -525 -124 -551 0 -29 26 -16 106 51 174 147 544 496 677
640 l79 85 99 2 c54 0 99 -2 99 -5 0 -9 -132 -127 -360 -324 -244 -209 -490
-435 -490 -450 0 -19 190 -297 375 -545 99 -135 203 -275 229 -313 l48 -67
-130 0 -130 0 -83 132 c-204 327 -472 709 -506 722 -9 4 -20 3 -25 -2 -8 -8
-111 -516 -153 -754 l-17 -98 -104 0 c-66 0 -104 4 -104 10 0 6 18 82 39 168
83 328 189 822 271 1255 27 147 50 268 50 270 0 1 47 2 105 2 58 0 105 -1 105
-3z"/>
</g>
</svg>
